<svg width="149" height="64" viewBox="0 0 149 64" fill="none" xmlns="http://www.w3.org/2000/svg">
<g clip-path="url(#clip0_3001_5387)">
<path d="M61.555 33.292C60.7939 32.8699 60.3933 32.5283 60.3933 32.0458C60.3933 31.4228 60.9341 31.0408 61.7954 31.0408C62.7969 31.0408 63.6782 31.463 63.6782 31.463L64.3793 29.3123C64.3793 29.3123 63.7384 28.8098 61.8355 28.8098C59.1915 28.8098 57.3486 30.3374 57.3486 32.4679C57.3486 33.6739 58.2099 34.5984 59.3517 35.2617C60.2731 35.7843 60.5936 36.1662 60.5936 36.7089C60.5936 37.2918 60.1329 37.7541 59.2716 37.7541C57.9896 37.7541 56.7878 37.0908 56.7878 37.0908L56.0468 39.2414C56.0468 39.2414 57.1684 39.9851 59.0313 39.9851C61.7554 39.9851 63.6983 38.6385 63.6983 36.2265C63.7384 34.9 62.7369 33.9754 61.555 33.292Z" fill="#D6E4E2"/>
<path d="M72.4097 28.7696C71.0677 28.7696 70.0262 29.4128 69.2048 30.3776L69.1649 30.3575L70.3266 24.2473H67.282L64.3375 39.784H67.3621L68.3636 34.4778C68.7642 32.4679 69.7857 31.2418 70.7472 31.2418C71.4283 31.2418 71.6886 31.7042 71.6886 32.3674C71.6886 32.7895 71.6485 33.292 71.5484 33.7141L70.4067 39.8042H73.4313L74.6131 33.5332C74.7533 32.8699 74.8334 32.086 74.8334 31.5434C74.8735 29.7947 73.9921 28.7696 72.4097 28.7696Z" fill="#D6E4E2"/>
<path d="M81.7249 28.77C78.0793 28.77 75.6556 32.0664 75.6556 35.7445C75.6556 38.0961 77.0978 40.0056 79.822 40.0056C83.4074 40.0056 85.811 36.7897 85.811 33.0311C85.8311 30.8403 84.5692 28.77 81.7249 28.77ZM80.2426 37.654C79.2011 37.654 78.7804 36.7696 78.7804 35.6641C78.7804 33.9155 79.6817 31.0815 81.3243 31.0815C82.4059 31.0815 82.7464 32.006 82.7464 32.9105C82.7464 34.7998 81.845 37.654 80.2426 37.654Z" fill="#D6E4E2"/>
<path d="M93.5875 28.77C91.5445 28.77 90.3828 30.579 90.3828 30.579H90.3427L90.523 28.951H87.8388C87.6986 30.0564 87.4583 31.7246 87.2179 32.9909L85.1147 44.0857H88.1393L88.9805 39.5835H89.0407C89.0407 39.5835 89.6617 39.9854 90.8234 39.9854C94.3888 39.9854 96.7124 36.3274 96.7124 32.6291C96.7124 30.5991 95.811 28.77 93.5875 28.77ZM90.7032 37.7142C89.922 37.7142 89.4613 37.272 89.4613 37.272L89.9621 34.438C90.3226 32.5487 91.3041 31.2824 92.3457 31.2824C93.2671 31.2824 93.5476 32.1467 93.5476 32.9507C93.5476 34.9004 92.3858 37.7142 90.7032 37.7142Z" fill="#D6E4E2"/>
<path d="M101.031 24.4084C100.07 24.4084 99.2887 25.1722 99.2887 26.1772C99.2887 27.0817 99.8495 27.7047 100.711 27.7047H100.751C101.692 27.7047 102.514 27.0615 102.534 25.936C102.554 25.0315 101.953 24.4084 101.031 24.4084Z" fill="#D6E4E2"/>
<path d="M96.7847 39.784H99.8293L101.892 29.0107H98.8277L96.7847 39.784Z" fill="#D6E4E2"/>
<path d="M109.585 28.9908H107.482L107.582 28.4883C107.762 27.4432 108.364 26.5186 109.384 26.5186C109.926 26.5186 110.346 26.6794 110.346 26.6794L110.947 24.3076C110.947 24.3076 110.426 24.0464 109.305 24.0464C108.223 24.0464 107.161 24.3478 106.34 25.0513C105.299 25.9357 104.818 27.202 104.577 28.4883L104.497 28.9908H103.095L102.655 31.2821H104.057L102.454 39.7841H105.479L107.081 31.2821H109.164L109.585 28.9908Z" fill="#D6E4E2"/>
<path d="M116.873 29.0107C116.873 29.0107 114.97 33.7944 114.129 36.4074H114.089C114.029 35.5632 113.347 29.0107 113.347 29.0107H110.162L111.986 38.8996C112.025 39.1208 112.005 39.2614 111.926 39.4022C111.565 40.0855 110.984 40.7488 110.283 41.2312C109.722 41.6532 109.081 41.9146 108.58 42.0954L109.422 44.6682C110.042 44.5274 111.304 44.025 112.386 43.0201C113.768 41.7136 115.051 39.7237 116.352 36.9902L120.058 29.0107H116.873Z" fill="#D6E4E2"/>
<path d="M45.6028 22.0164C45.6028 22.0164 45.3224 22.0968 44.8617 22.2374C44.7816 21.9762 44.6613 21.6746 44.5012 21.353C43.9803 20.3481 43.1992 19.8054 42.2777 19.8054C42.2176 19.8054 42.1576 19.8054 42.0774 19.8255C42.0575 19.7853 42.0174 19.7652 41.9973 19.725C41.5967 19.2828 41.0759 19.0818 40.455 19.102C39.2531 19.1422 38.0514 20.0065 37.0899 21.554C36.4089 22.6395 35.8881 24.0062 35.7479 25.0715C34.3657 25.4935 33.4043 25.7951 33.3843 25.8151C32.6832 26.0362 32.6632 26.0563 32.5831 26.7196C32.523 27.2221 30.6802 41.372 30.6802 41.372L45.8231 44.005V21.9962C45.7029 21.9962 45.6429 22.0164 45.6028 22.0164ZM42.0974 23.1017C41.2963 23.3429 40.4149 23.6243 39.5536 23.8856C39.7939 22.9409 40.2747 21.9962 40.8355 21.3732C41.0559 21.1521 41.3563 20.8908 41.6968 20.73C42.0374 21.4536 42.1175 22.4385 42.0974 23.1017ZM40.455 19.9261C40.7354 19.9261 40.9758 19.9863 41.1761 20.1069C40.8556 20.2677 40.5351 20.529 40.2346 20.8305C39.4735 21.6546 38.8927 22.9409 38.6522 24.167C37.9311 24.388 37.21 24.6092 36.5491 24.8102C36.9897 22.8807 38.6122 19.9663 40.455 19.9261ZM38.1315 30.9807C38.2115 32.267 41.5967 32.5484 41.797 35.5834C41.9372 37.9752 40.5351 39.6033 38.512 39.7239C36.0683 39.8847 34.7263 38.4376 34.7263 38.4376L35.2471 36.2266C35.2471 36.2266 36.5892 37.2517 37.6707 37.1713C38.3718 37.1311 38.6322 36.5481 38.6122 36.1462C38.512 34.4579 35.7479 34.5584 35.5676 31.7846C35.4073 29.4531 36.9296 27.1014 40.2948 26.8804C41.5967 26.8 42.2577 27.1216 42.2577 27.1216L41.4965 30.0159C41.4965 30.0159 40.6352 29.614 39.6137 29.6944C38.1315 29.7948 38.1114 30.7395 38.1315 30.9807ZM42.8987 22.8605C42.8987 22.2575 42.8185 21.3932 42.5381 20.6697C43.4596 20.8506 43.9002 21.8756 44.1005 22.4987C43.74 22.5993 43.3394 22.7199 42.8987 22.8605Z" fill="#D6E4E2"/>
<path d="M46.282 43.965L52.5715 42.3971C52.5715 42.3971 49.8674 24.0465 49.8474 23.9259C49.8273 23.8053 49.7272 23.7249 49.627 23.7249C49.5269 23.7249 47.7642 23.6847 47.7642 23.6847C47.7642 23.6847 46.6826 22.6395 46.282 22.2375V43.965Z" fill="#D6E4E2"/>
</g>
<defs>
<clipPath id="clip0_3001_5387">
<rect width="149" height="64" fill="white"/>
</clipPath>
</defs>
</svg>
