<svg width="24" height="24" viewBox="0 0 24 24" fill="none" xmlns="http://www.w3.org/2000/svg">
<path d="M17.2239 13.7239C16.2562 14.044 15.2186 14.0889 14.2269 13.8536C13.2352 13.6183 12.3283 13.112 11.6076 12.3912C10.8869 11.6705 10.3806 10.7637 10.1453 9.77195C9.90995 8.78022 9.95484 7.7426 10.2749 6.7749C9.38384 7.06966 8.583 7.58756 7.94863 8.2793C7.31426 8.97105 6.86747 9.81363 6.65078 10.7269C6.43409 11.6401 6.45471 12.5936 6.71067 13.4966C6.96664 14.3996 7.44943 15.2221 8.11311 15.8857C8.77679 16.5494 9.59927 17.0322 10.5023 17.2882C11.4053 17.5441 12.3588 17.5647 13.272 17.3481C14.1852 17.1314 15.0278 16.6846 15.7195 16.0502C16.4113 15.4158 16.9292 14.615 17.2239 13.7239Z" stroke="white"/>
</svg>
