<svg width="103" height="14" viewBox="0 0 103 14" fill="none" xmlns="http://www.w3.org/2000/svg">
<mask id="mask0_3001_5369" style="mask-type:luminance" maskUnits="userSpaceOnUse" x="0" y="0" width="103" height="14">
<path d="M102.296 0.0119629H0.461029V13.0296H102.296V0.0119629Z" fill="white"/>
</mask>
<g mask="url(#mask0_3001_5369)">
<path d="M3.09812 13.0087V0.0119629H0.473572V13.0087H3.09812Z" fill="#D6E4E2"/>
<path d="M13.0827 13.0087H15.7073V0.0119629H13.0827V8.54709L6.68666 0.0119629H4.06212V13.0087H6.68666V4.47349L13.0827 13.0087Z" fill="#D6E4E2"/>
<path d="M19.0199 0.0119629H16.201L21.5861 13.0087H24.2107L29.5957 0.0119629H26.7769L22.8887 9.49758L19.0199 0.0119629Z" fill="#D6E4E2"/>
<path d="M30.0902 0.0119629V13.0087H38.6053V10.5839H32.7147V7.51899H38.6053V5.09426H32.7147V2.4367H38.6053V0.0119629H30.0902Z" fill="#D6E4E2"/>
<path d="M38.4983 2.4367H43.0086V13.0087H45.633V2.4367H50.1433V0.0119629H38.4983V2.4367Z" fill="#D6E4E2"/>
<path d="M51.127 0.0119629V13.0087H59.6421V10.5839H53.7516V7.51899H59.6421V5.09426H53.7516V2.4367H59.6421V0.0119629H51.127Z" fill="#D6E4E2"/>
<path d="M60.6154 13.0087H63.2402V8.10095H64.4065L67.8475 13.0087H70.9582L67.3032 8.00394C69.364 7.6354 70.7636 6.10295 70.7636 4.06616C70.7636 1.66072 68.8974 0.0119629 66.2923 0.0119629H60.6154V13.0087ZM66.2923 2.4367C67.4199 2.4367 68.1392 3.07686 68.1392 4.06616C68.1392 5.03605 67.4199 5.67622 66.2923 5.67622H63.2402V2.4367H66.2923Z" fill="#D6E4E2"/>
<path d="M81.5297 13.0087H84.3491L78.9635 0.0119629H76.339L70.9538 13.0087H73.7729L74.7448 10.6227H80.5578L81.5297 13.0087ZM75.7364 8.19796L77.6609 3.523L79.5661 8.19796H75.7364Z" fill="#D6E4E2"/>
<path d="M81.1414 2.4367H85.6515V13.0087H88.2767V2.4367H92.7864V0.0119629H81.1414V2.4367Z" fill="#D6E4E2"/>
<path d="M93.7661 0.0119629V13.0087H102.282V10.5839H96.3902V7.51899H102.282V5.09426H96.3902V2.4367H102.282V0.0119629H93.7661Z" fill="#D6E4E2"/>
</g>
</svg>
