<svg width="288" height="129" viewBox="0 0 288 129" fill="none" xmlns="http://www.w3.org/2000/svg">
<rect y="0.97998" width="288" height="128" rx="8" fill="#F9F9F9"/>
<g clip-path="url(#clip0_3001_7201)">
<g clip-path="url(#clip1_3001_7201)">
<g clip-path="url(#clip2_3001_7201)">
<path d="M166.14 32.98H120C115.582 32.98 112 36.5617 112 40.98V87.1203C112 91.5385 115.582 95.1203 120 95.1203H166.14C170.559 95.1203 174.14 91.5385 174.14 87.1203V40.98C174.14 36.5617 170.559 32.98 166.14 32.98Z" fill="url(#paint0_linear_3001_7201)"/>
<path d="M154.837 79.8017C156.85 79.3646 157.9 76.9177 157.9 76.9177C156.325 79.4521 153.699 78.8404 152.911 78.7529C152.123 78.4033 151.248 77.9665 150.11 77.7044C149.41 77.5294 148.885 77.2673 148.272 77.0052C150.723 72.3734 153.436 71.7617 154.224 71.0625C154.399 70.975 154.486 70.8878 154.486 70.7129C154.486 70.4508 154.312 70.2761 154.136 70.2761C154.049 70.2761 153.961 70.2761 153.874 70.3633H153.786C150.81 71.8489 148.972 75.17 148.097 76.9177C145.821 75.8692 144.245 74.3833 143.107 72.8977C143.983 71.8489 145.821 70.0137 148.534 69.402C150.285 68.9652 151.423 69.402 151.423 69.402C151.51 69.4894 151.51 69.4894 151.598 69.4894C151.773 69.4894 151.861 69.3148 151.861 69.1398C151.861 68.9652 151.773 68.8777 151.598 68.8777C151.335 68.7902 150.022 68.5281 148.359 68.8777C148.359 68.8777 145.383 69.4894 143.107 72.8102C141.182 70.2761 140.832 67.7417 140.832 67.7417C140.832 68.266 141.532 78.6657 149.935 79.9764C156.937 81.0252 157.55 84.4334 157.55 85.5697C157.638 84.5209 157.813 81.9865 154.837 79.8017Z" fill="#FFFFFA"/>
<path d="M131.028 65.0322C131.028 65.0322 137.593 67.5666 139.869 73.0725C140.481 74.5581 140.131 72.3733 138.818 68.965C137.943 66.7802 136.63 65.2071 136.63 65.2071C136.63 65.2071 134.004 61.6239 129.715 59.9637C124.551 57.8661 124.113 50.8748 125.426 47.2917C126.651 44.1456 127.964 42.8347 127.964 42.8347C125.689 43.8834 122.712 48.1656 122.712 52.7974C122.712 52.7974 122.537 62.061 131.028 65.0322Z" fill="#FFFFFA"/>
<path d="M147.051 54.5629C147.05 54.5571 147.048 54.5512 147.046 54.5454C147.052 54.5454 147.054 54.5514 147.051 54.5629C147.393 55.6913 147.046 56.6428 147.046 56.6428C149.41 57.4293 151.073 59.352 151.073 59.352C150.81 59.352 150.723 59.2646 149.847 59.0024C149.847 59.0024 148.447 58.4781 147.571 58.5654H147.134C146.871 58.8276 146.346 59.1772 145.558 59.1772C143.983 59.1772 142.845 58.3033 142.845 58.3033L143.107 58.2159C143.37 58.1285 144.158 57.5167 144.946 56.8176C146.244 55.7639 147.016 54.7101 147.051 54.5629Z" fill="#FFFFFA"/>
<path d="M163.327 62.1486C163.415 62.4979 163.502 63.2846 163.327 65.2947C163.161 66.6233 162.837 67.4785 161.453 72.2097C161.357 72.6339 161.274 72.9683 161.226 73.1598C161.226 73.1598 161.203 73.1993 161.122 73.2641C161.019 73.3654 160.739 73.6219 159.913 74.0337C159.301 74.2961 157.025 75.1699 155.012 74.995C152.298 74.8203 151.685 75.1699 151.685 75.1699C151.685 75.1699 151.861 72.8977 155.187 73.7715C156.325 74.0337 158.163 74.1211 159.213 73.9465C160.438 73.7019 160.934 73.4147 161.122 73.2641C161.128 73.2579 161.134 73.2523 161.139 73.2473C161.139 73.1598 161.226 73.0726 161.226 72.9851C161.305 72.7155 161.38 72.4574 161.453 72.2097C161.878 70.3123 162.546 66.6206 161.402 65.9065C161.051 65.6441 160.876 65.4694 160.526 65.6441C160.526 65.6441 159.388 65.9065 158.688 64.071C158.25 63.2846 158.951 63.1099 158.951 63.1099C158.951 63.1099 159.651 62.5854 160.526 63.1099C160.526 63.1099 161.051 61.8862 162.802 61.9737C162.802 61.9737 163.065 61.9737 163.152 62.0611C162.102 59.1771 152.211 55.3319 152.211 55.3319C148.534 53.9336 147.484 51.4867 144.946 49.2145C143.246 47.7494 140.866 46.7605 139.367 46.308C139.187 46.2571 139.004 46.2063 138.818 46.1558C138.983 46.1969 139.167 46.2477 139.367 46.308C142.917 47.3114 145.296 48.3406 145.296 48.3406C148.009 49.3893 150.635 53.5841 153.086 54.8076C154.749 55.5941 162.539 59.0024 163.327 62.1486Z" fill="#FFFFFA"/>
<path d="M138.704 46.0253C138.539 45.9775 138.329 45.9636 138.118 45.8936C138.118 45.8936 138.335 45.8936 138.704 46.0253C138.745 46.0371 138.783 46.051 138.818 46.0683C138.779 46.0526 138.741 46.0383 138.704 46.0253Z" fill="#FFFFFA"/>
<path d="M127.789 54.1958C127.789 54.1958 128.227 58.6528 134.092 60.051C137.155 60.8377 138.118 63.5467 138.468 64.5955C138.468 64.5955 137.943 61.0998 135.492 58.8276C135.492 58.8276 133.391 56.3806 134.267 53.4967C134.879 51.4867 135.054 50.7001 134.442 49.0397C133.917 47.6414 132.516 45.8062 132.166 45.3692C131.728 44.8449 132.779 45.981 132.954 47.554C133.129 48.9523 132.078 50.6127 131.378 52.2732C130.328 54.7202 131.291 56.3806 132.516 57.4293C131.203 57.2545 130.065 57.2545 127.789 54.1958Z" fill="#FFFFFA"/>
<path d="M129.19 42.223C130.59 42.223 132.691 42.66 135.317 46.5052C137.243 49.3018 136.367 52.4479 136.367 52.4479C136.367 52.4479 137.943 49.2144 137.068 46.68C135.142 41.4365 129.19 42.223 129.19 42.223Z" fill="#FFFFFA"/>
<path d="M140.744 80.5008C139.518 72.6354 133.304 68.1784 131.991 68.7901C131.641 68.965 131.641 69.3146 131.641 69.3146C131.641 69.3146 131.29 71.1498 135.842 73.5093C139.431 75.3445 140.481 78.8402 140.744 80.5008Z" fill="#FFFFFA"/>
<path d="M140.831 81.3746C140.831 81.3746 140.831 81.1999 140.744 80.8503C140.831 81.025 140.831 81.1999 140.831 81.3746Z" fill="#FFFFFA"/>
</g>
</g>
</g>
<defs>
<linearGradient id="paint0_linear_3001_7201" x1="112" y1="32.98" x2="174.14" y2="95.1203" gradientUnits="userSpaceOnUse">
<stop stop-color="#592E87"/>
<stop offset="0.783174" stop-color="#7358B9"/>
</linearGradient>
<clipPath id="clip0_3001_7201">
<rect width="96" height="64" fill="white" transform="translate(96 32.98)"/>
</clipPath>
<clipPath id="clip1_3001_7201">
<rect width="96" height="64" fill="white" transform="translate(96 32.98)"/>
</clipPath>
<clipPath id="clip2_3001_7201">
<rect width="64" height="64" fill="white" transform="translate(112 32.98)"/>
</clipPath>
</defs>
</svg>
