<svg width="21" height="21" viewBox="0 0 21 21" fill="none" xmlns="http://www.w3.org/2000/svg">
<path d="M10.1216 1.95459C8.391 1.95459 6.69928 2.46777 5.26035 3.42923C3.82142 4.39069 2.69991 5.75726 2.03764 7.35611C1.37537 8.95496 1.20209 10.7143 1.53971 12.4116C1.87734 14.109 2.71069 15.6681 3.9344 16.8918C5.15811 18.1155 6.71721 18.9488 8.41455 19.2865C10.1119 19.6241 11.8712 19.4508 13.4701 18.7885C15.0689 18.1263 16.4355 17.0048 17.3969 15.5658C18.3584 14.1269 18.8716 12.4352 18.8716 10.7046C18.8716 8.38395 17.9497 6.15835 16.3088 4.51741C14.6678 2.87646 12.4422 1.95459 10.1216 1.95459ZM8.87159 14.1988L5.74659 11.0738L6.74071 10.0796L8.87159 12.2103L13.5028 7.57959L14.5001 8.57078L8.87159 14.1988Z" fill="#131D23"/>
</svg>
