<svg width="25" height="25" viewBox="0 0 25 25" fill="none" xmlns="http://www.w3.org/2000/svg">
<path d="M5.8966 4.22949C5.03635 4.88962 4.27818 5.67306 3.6466 6.55449L4.8466 7.45449C5.39744 6.69056 6.05399 6.00875 6.7966 5.42949L5.8966 4.22949Z" fill="#121F24"/>
<path d="M3.5716 9.92949L2.1466 9.47949C1.78432 10.5155 1.60663 11.6071 1.6216 12.7045H3.1216C3.11856 11.7611 3.27058 10.8236 3.5716 9.92949Z" fill="#121F24"/>
<path d="M2.1466 16.0045C2.49442 17.0503 3.00028 18.0367 3.6466 18.9295L4.8466 18.0295C4.30441 17.2703 3.87496 16.4367 3.5716 15.5545L2.1466 16.0045Z" fill="#121F24"/>
<path d="M5.9716 21.1795C6.86435 21.8258 7.85077 22.3317 8.8966 22.6795L9.3466 21.2545C8.46441 20.9511 7.63076 20.5217 6.8716 19.9795L5.9716 21.1795Z" fill="#121F24"/>
<path d="M8.8966 2.72949L9.3466 4.15449C10.2407 3.85347 11.1782 3.70144 12.1216 3.70449V2.20449C11.0242 2.18951 9.93262 2.36721 8.8966 2.72949Z" fill="#121F24"/>
<path d="M18.2716 21.1795C19.155 20.5211 19.9382 19.7379 20.5966 18.8545L19.3966 17.9545C18.8388 18.7373 18.1545 19.4217 17.3716 19.9795L18.2716 21.1795Z" fill="#121F24"/>
<path d="M20.6716 15.4795L22.0966 15.9295C22.4229 14.8846 22.5996 13.7989 22.6216 12.7045H21.1216C21.1246 13.6479 20.9726 14.5854 20.6716 15.4795Z" fill="#121F24"/>
<path d="M22.0216 9.40449C21.6738 8.35866 21.1679 7.37224 20.5216 6.47949L19.3216 7.37949C19.8638 8.13865 20.2932 8.97229 20.5966 9.85449L22.0216 9.40449Z" fill="#121F24"/>
<path d="M18.1966 4.15449C17.3039 3.50817 16.3174 3.00231 15.2716 2.65449L14.8216 4.07949C15.7038 4.38284 16.5374 4.8123 17.2966 5.35449L18.1966 4.15449Z" fill="#121F24"/>
<path d="M15.3466 22.6795L14.8966 21.2545C14.0025 21.5555 13.065 21.7075 12.1216 21.7045V23.2045C13.2117 23.1395 14.2922 22.9636 15.3466 22.6795Z" fill="#121F24"/>
</svg>
