<svg width="151" height="40" viewBox="0 0 151 40" fill="none" xmlns="http://www.w3.org/2000/svg">
<g clip-path="url(#clip0_3001_8100)">
<g clip-path="url(#clip1_3001_8100)">
<g clip-path="url(#clip2_3001_8100)">
<path fill-rule="evenodd" clip-rule="evenodd" d="M9.47958 1.17888C8.4937 0.609654 7.69455 1.07107 7.6946 2.20948L7.69481 6.24478L10.8186 8.04834L10.8185 5.55902L30.8963 17.1518L30.8966 30.2708L10.8188 18.678L10.8187 16.4122L7.69491 14.6086L7.69512 18.4203C7.69517 19.5587 8.49437 20.9429 9.4802 21.5121L32.2356 34.6509C33.2214 35.2201 34.0206 34.7586 34.0206 33.6203L34.0201 17.4095C34.0201 16.2711 33.2208 14.8869 32.2348 14.3176L9.47958 1.17888ZM3.26898 9.70449L3.26939 22.8235L23.3472 34.4162L23.3471 32.077L26.4709 33.8808L26.4712 37.7659C26.4712 38.9042 25.6719 39.3657 24.6861 38.7963L1.93075 25.6576C0.944914 25.0884 0.145694 23.7041 0.145658 22.5658L0.145142 6.35495C0.145105 5.21657 0.944262 4.75517 1.9301 5.3244L24.6854 18.4632C25.6713 19.0324 26.4704 20.4166 26.4706 21.555V24.9631L23.3469 23.1595L23.3468 21.2973L3.26898 9.70449ZM97.3865 15.5091C99.3653 15.5091 100.664 17.0859 100.664 19.7449V27.6598C99.86 28.4946 98.8087 28.9275 97.5102 28.9275C94.4493 28.9275 92.8106 26.0212 92.8106 22.2492C92.8106 18.199 94.573 15.5091 97.3865 15.5091ZM100.664 9.75832V15.6018C99.8909 14.8907 98.6851 14.4579 97.1701 14.4579C92.8106 14.4579 89.4715 17.8898 89.4715 23.6096C89.4715 28.1236 91.914 31.2463 95.686 31.2463C97.8812 31.2463 99.4271 30.0714 100.664 28.3709L100.54 31.2463H101.159L106.291 30.1333V29.3294L105.487 29.2675C104.188 29.1439 104.127 28.8656 104.127 27.8144V6.72834H103.632L98.716 8.24333V8.7071L100.664 9.75832ZM49.9499 10.8095H49.2078C48.0329 12.7883 46.4252 14.4888 44.5083 15.4473V16.0038H46.5179V26.6086C46.5179 29.9787 48.3112 31.2463 50.661 31.2463C52.7016 31.2463 54.1547 30.1333 55.0513 28.8038L54.7113 28.34C53.9074 28.9275 53.2581 29.2057 52.3306 29.2057C50.7228 29.2057 49.9499 28.34 49.9499 26.2377V16.0038H54.1856V14.7361H49.9499V10.8095ZM61.8155 29.1439C60.084 29.1439 59.2493 27.9999 59.2493 26.3304C59.2493 24.6609 60.084 23.857 61.5372 23.3005L64.7836 21.971V27.7835C63.7015 28.6492 62.8976 29.1439 61.8155 29.1439ZM68.2464 19.312C68.2464 15.911 66.2986 14.427 62.5884 14.427C59.342 14.427 56.8067 15.7564 56.8067 18.199C56.8067 19.1265 57.3014 19.7449 58.1053 19.9922L60.1459 19.714C59.9913 19.0647 59.8985 18.5391 59.8985 17.9825C59.8985 16.4366 60.5787 15.2927 62.2174 15.2927C64.0725 15.2927 64.7836 16.7149 64.7836 18.6627V21.0125L60.2386 22.6821C57.827 23.5787 55.9101 24.6609 55.9101 27.2888C55.9101 29.6695 57.4869 31.2154 59.9604 31.2154C62.1246 31.2154 63.7942 29.7622 64.8454 28.4946C65.0928 30.1951 66.0512 31.2463 67.659 31.2463C68.9576 31.2463 70.0706 30.6898 70.8745 29.6076L70.689 29.0511C70.287 29.2366 69.8542 29.3912 69.3595 29.3912C68.4938 29.3912 68.2464 28.7419 68.2464 27.5052V19.312ZM81.3204 30.0405C82.8663 29.9477 83.361 29.7313 83.361 28.5874V19.5594C83.361 17.4878 82.5262 16.5603 80.7639 16.5603C79.3107 16.5603 77.9503 17.3023 76.8682 18.168V28.5874C76.8682 29.7313 77.3629 29.9477 78.8779 30.0405V30.9371H71.3648V30.0405C72.9107 29.9477 73.4054 29.7313 73.4054 28.5874V17.5497L71.4575 16.4675V16.0347L76.4663 14.427H76.9919L76.8682 17.3951C78.2595 15.8183 80.0528 14.427 82.5262 14.427C85.4016 14.427 86.8238 16.0656 86.8238 19.4048V28.5874C86.8238 29.7313 87.3185 29.9477 88.8644 30.0405V30.9371H81.3204V30.0405ZM111.922 17.5188L115.91 27.4125L119.59 17.5188C119.713 17.1477 119.775 16.9004 119.775 16.6531C119.775 15.9419 119.219 15.8183 117.642 15.6328V14.7361H122.774V15.6328C121.661 15.911 121.445 16.1584 121.197 16.7767L114.519 34.0289C113.591 36.3787 112.633 37.7082 110.685 37.7082C109.696 37.7082 108.675 37.1517 108.397 36.2241V35.0183L108.41 35.0217C108.991 35.1747 109.455 35.2966 110.314 35.2966C111.984 35.2966 113.035 34.8328 113.746 32.9159L114.303 31.4318L107.903 16.7767C107.624 16.1274 107.439 15.911 106.326 15.6328V14.7361H113.87V15.6328C112.293 15.8183 111.736 15.9419 111.736 16.6531C111.736 16.9004 111.798 17.1477 111.922 17.5188ZM144.54 28.5874C144.54 29.7313 144.107 29.9477 142.561 30.0405V30.9371H150.044V30.0405C148.498 29.9477 148.003 29.7313 148.003 28.5874V19.4357C148.003 16.1274 146.735 14.427 143.922 14.427C141.448 14.427 139.686 15.8801 138.295 17.4878C137.862 15.3854 136.625 14.427 134.399 14.427C131.895 14.427 130.318 15.7874 128.927 17.3951L129.05 14.427H128.525L123.516 16.0347V16.4675L125.464 17.5497V28.5874C125.464 29.7313 124.969 29.9477 123.423 30.0405V30.9371H130.936V30.0405C129.39 29.9477 128.927 29.7313 128.927 28.5874V18.168C130.009 17.3023 131.153 16.5603 132.575 16.5603C134.306 16.5603 135.017 17.5188 135.017 19.5594V28.5874C135.017 29.7313 134.554 29.9477 133.008 30.0405V30.9371H140.459V30.0405C138.913 29.9477 138.48 29.7313 138.48 28.5874V18.168C139.562 17.3023 140.706 16.5603 142.129 16.5603C143.86 16.5603 144.54 17.5188 144.54 19.5594V28.5874Z" fill="white"/>
</g>
</g>
</g>
<defs>
<clipPath id="clip0_3001_8100">
<rect width="150" height="38.39" fill="white" transform="translate(0.121582 0.70459)"/>
</clipPath>
<clipPath id="clip1_3001_8100">
<rect width="150" height="38.39" fill="white" transform="translate(0.121582 0.70459)"/>
</clipPath>
<clipPath id="clip2_3001_8100">
<rect width="149.953" height="38.39" fill="white" transform="translate(0.145142 0.70459)"/>
</clipPath>
</defs>
</svg>
